{
  "accessors": [
    {
      "bufferView": 2,
      "componentType": 5126,
      "count": 388,
      "max": [
        0.876916229724884,
        1.5612719058990479,
        1.0587401390075684
      ],
      "min": [
        -0.876916229724884,
        -1.086862564086914,
        -0.6837316155433655
      ],
      "type": "VEC3"
    },
    {
      "bufferView": 2,
      "byteOffset": 4656,
      "componentType": 5126,
      "count": 388,
      "type": "VEC3"
    },
    {
      "bufferView": 1,
      "componentType": 5126,
      "count": 388,
      "type": "VEC2"
    },
    {
      "bufferView": 0,
      "componentType": 5125,
      "count": 2178,
      "type": "SCALAR"
    },
    {
      "bufferView": 2,
      "byteOffset": 9312,
      "componentType": 5126,
      "count": 11177,
      "max": [
        1.5195841789245605,
        2.2612032890319824,
        1.2223941087722778
      ],
      "min": [
        -1.5241342782974243,
        0.7438966035842896,
        -1.2222613096237183
      ],
      "type": "VEC3"
    },
    {
      "bufferView": 2,
      "byteOffset": 143436,
      "componentType": 5126,
      "count": 11177,
      "type": "VEC3"
    },
    {
      "bufferView": 1,
      "byteOffset": 3104,
      "componentType": 5126,
      "count": 11177,
      "type": "VEC2"
    },
    {
      "bufferView": 0,
      "byteOffset": 8712,
      "componentType": 5125,
      "count": 60891,
      "type": "SCALAR"
    },
    {
      "bufferView": 2,
      "byteOffset": 277560,
      "componentType": 5126,
      "count": 845,
      "max": [
        1.8796519041061401,
        2.3810083866119385,
        0.09084565192461014
      ],
      "min": [
        -1.8632460832595825,
        1.5464287996292114,
        -1.1489899158477783
      ],
      "type": "VEC3"
    },
    {
      "bufferView": 2,
      "byteOffset": 287700,
      "componentType": 5126,
      "count": 845,
      "type": "VEC3"
    },
    {
      "bufferView": 1,
      "byteOffset": 92520,
      "componentType": 5126,
      "count": 845,
      "type": "VEC2"
    },
    {
      "bufferView": 0,
      "byteOffset": 252276,
      "componentType": 5125,
      "count": 3432,
      "type": "SCALAR"
    },
    {
      "bufferView": 2,
      "byteOffset": 297840,
      "componentType": 5126,
      "count": 1938,
      "max": [
        1.4953120946884155,
        1.5068615674972534,
        1.0412585735321045
      ],
      "min": [
        -1.3238108158111572,
        -1.2516589164733887,
        -0.6599035263061523
      ],
      "type": "VEC3"
    },
    {
      "bufferView": 2,
      "byteOffset": 321096,
      "componentType": 5126,
      "count": 1938,
      "type": "VEC3"
    },
    {
      "bufferView": 1,
      "byteOffset": 99280,
      "componentType": 5126,
      "count": 1938,
      "type": "VEC2"
    },
    {
      "bufferView": 0,
      "byteOffset": 266004,
      "componentType": 5125,
      "count": 8424,
      "type": "SCALAR"
    },
    {
      "bufferView": 2,
      "byteOffset": 344352,
      "componentType": 5126,
      "count": 6512,
      "max": [
        1.515663981437683,
        2.5276801586151123,
        1.0216032266616821
      ],
      "min": [
        -1.5857163667678833,
        0.8936502933502197,
        -1.371716856956482
      ],
      "type": "VEC3"
    },
    {
      "bufferView": 2,
      "byteOffset": 422496,
      "componentType": 5126,
      "count": 6512,
      "type": "VEC3"
    },
    {
      "bufferView": 1,
      "byteOffset": 114784,
      "componentType": 5126,
      "count": 6512,
      "type": "VEC2"
    },
    {
      "bufferView": 0,
      "byteOffset": 299700,
      "componentType": 5125,
      "count": 29376,
      "type": "SCALAR"
    },
    {
      "bufferView": 2,
      "byteOffset": 500640,
      "componentType": 5126,
      "count": 539,
      "max": [
        0.8547450304031372,
        0.8889230489730835,
        1.0581023693084717
      ],
      "min": [
        -0.8547450304031372,
        -0.20087364315986633,
        -0.6681098937988281
      ],
      "type": "VEC3"
    },
    {
      "bufferView": 2,
      "byteOffset": 507108,
      "componentType": 5126,
      "count": 539,
      "type": "VEC3"
    },
    {
      "bufferView": 1,
      "byteOffset": 166880,
      "componentType": 5126,
      "count": 539,
      "type": "VEC2"
    },
    {
      "bufferView": 0,
      "byteOffset": 417204,
      "componentType": 5125,
      "count": 2088,
      "type": "SCALAR"
    },
    {
      "bufferView": 2,
      "byteOffset": 513576,
      "componentType": 5126,
      "count": 785,
      "max": [
        1.481626033782959,
        0.8310422897338867,
        0.992566704750061
      ],
      "min": [
        -1.3479604721069336,
        -0.39415407180786133,
        -0.7280865907669067
      ],
      "type": "VEC3"
    },
    {
      "bufferView": 2,
      "byteOffset": 522996,
      "componentType": 5126,
      "count": 785,
      "type": "VEC3"
    },
    {
      "bufferView": 1,
      "byteOffset": 171192,
      "componentType": 5126,
      "count": 785,
      "type": "VEC2"
    },
    {
      "bufferView": 0,
      "byteOffset": 425556,
      "componentType": 5125,
      "count": 2904,
      "type": "SCALAR"
    },
    {
      "bufferView": 2,
      "byteOffset": 532416,
      "componentType": 5126,
      "count": 559,
      "max": [
        1.0306484699249268,
        1.9462283849716187,
        1.169196367263794
      ],
      "min": [
        0.45733973383903503,
        1.540490984916687,
        0.6798437237739563
      ],
      "type": "VEC3"
    },
    {
      "bufferView": 2,
      "byteOffset": 539124,
      "componentType": 5126,
      "count": 559,
      "type": "VEC3"
    },
    {
      "bufferView": 1,
      "byteOffset": 177472,
      "componentType": 5126,
      "count": 559,
      "type": "VEC2"
    },
    {
      "bufferView": 0,
      "byteOffset": 437172,
      "componentType": 5125,
      "count": 2880,
      "type": "SCALAR"
    },
    {
      "bufferView": 2,
      "byteOffset": 545832,
      "componentType": 5126,
      "count": 192,
      "max": [
        -0.7387873530387878,
        3.0957155227661133,
        -2.132403612136841
      ],
      "min": [
        -1.2689988613128662,
        2.4876465797424316,
        -2.9677340984344482
      ],
      "type": "VEC3"
    },
    {
      "bufferView": 2,
      "byteOffset": 548136,
      "componentType": 5126,
      "count": 192,
      "type": "VEC3"
    },
    {
      "bufferView": 1,
      "byteOffset": 181944,
      "componentType": 5126,
      "count": 192,
      "type": "VEC2"
    },
    {
      "bufferView": 0,
      "byteOffset": 448692,
      "componentType": 5125,
      "count": 372,
      "type": "SCALAR"
    },
    {
      "bufferView": 2,
      "byteOffset": 550440,
      "componentType": 5126,
      "count": 132,
      "max": [
        0.1272980123758316,
        3.1461939811706543,
        -0.2725702226161957
      ],
      "min": [
        -0.82232666015625,
        2.189073085784912,
        -2.221926689147949
      ],
      "type": "VEC3"
    },
    {
      "bufferView": 2,
      "byteOffset": 552024,
      "componentType": 5126,
      "count": 132,
      "type": "VEC3"
    },
    {
      "bufferView": 1,
      "byteOffset": 183480,
      "componentType": 5126,
      "count": 132,
      "type": "VEC2"
    },
    {
      "bufferView": 0,
      "byteOffset": 450180,
      "componentType": 5125,
      "count": 360,
      "type": "SCALAR"
    }
  ],
  "asset": {
    "generator": "fab-model-conversion",
    "version": "2.0"
  },
  "bufferViews": [
    {
      "buffer": 0,
      "byteLength": 451620,
      "target": 34963
    },
    {
      "buffer": 0,
      "byteLength": 184536,
      "byteOffset": 451620,
      "byteStride": 8,
      "target": 34962
    },
    {
      "buffer": 0,
      "byteLength": 553608,
      "byteOffset": 636156,
      "byteStride": 12,
      "target": 34962
    }
  ],
  "buffers": [
    {
      "byteLength": 1189764,
      "uri": "scene.bin"
    }
  ],
  "extensionsUsed": [
    "KHR_materials_specular"
  ],
  "images": [
    {
      "uri": "Jeans_baseColor.png"
    },
    {
      "uri": "Jeans_specular_f0.png"
    },
    {
      "uri": "Head_baseColor.png"
    },
    {
      "uri": "Ears_baseColor.png"
    },
    {
      "uri": "Hair_baseColor.png"
    },
    {
      "uri": "BlueJacket_baseColor.png"
    },
    {
      "uri": "Circle_baseColor.png"
    }
  ],
  "materials": [
    {
      "doubleSided": true,
      "extensions": {
        "KHR_materials_specular": {
          "specularColorFactor": [
            0.0,
            0.0,
            0.0
          ],
          "specularFactor": 1.0,
          "specularTexture": {
            "index": 1
          }
        }
      },
      "name": "Jeans",
      "pbrMetallicRoughness": {
        "baseColorTexture": {
          "index": 0
        },
        "metallicFactor": 0.0,
        "roughnessFactor": 0.0
      }
    },
    {
      "doubleSided": true,
      "name": "Head",
      "pbrMetallicRoughness": {
        "baseColorTexture": {
          "index": 2
        },
        "metallicFactor": 0.0,
        "roughnessFactor": 0.0
      }
    },
    {
      "doubleSided": true,
      "name": "Ears",
      "pbrMetallicRoughness": {
        "baseColorTexture": {
          "index": 3
        },
        "metallicFactor": 0.0,
        "roughnessFactor": 0.5
      }
    },
    {
      "doubleSided": true,
      "name": "material",
      "pbrMetallicRoughness": {
        "baseColorFactor": [
          0.0,
          0.0,
          0.0,
          0.0
        ],
        "metallicFactor": 0.0,
        "roughnessFactor": 0.0
      }
    },
    {
      "doubleSided": true,
      "name": "Hair",
      "pbrMetallicRoughness": {
        "baseColorTexture": {
          "index": 4
        },
        "roughnessFactor": 0
      }
    },
    {
      "doubleSided": true,
      "name": "BlackS",
      "pbrMetallicRoughness": {
        "baseColorFactor": [
          0.0,
          0.0,
          0.0,
          1.0
        ],
        "metallicFactor": 0.0,
        "roughnessFactor": 0.582645
      }
    },
    {
      "doubleSided": true,
      "name": "BlueJacket",
      "pbrMetallicRoughness": {
        "baseColorTexture": {
          "index": 5
        },
        "metallicFactor": 0.0,
        "roughnessFactor": 0.566116
      }
    },
    {
      "doubleSided": true,
      "name": "BlueEye",
      "pbrMetallicRoughness": {
        "baseColorFactor": [
          0.0409152,
          0.274677,
          0.822786,
          1.0
        ],
        "metallicFactor": 0,
        "roughnessFactor": 0
      }
    },
    {
      "doubleSided": true,
      "name": "Circle",
      "pbrMetallicRoughness": {
        "baseColorTexture": {
          "index": 6
        },
        "metallicFactor": 0.0,
        "roughnessFactor": 0.0
      }
    },
    {
      "doubleSided": true,
      "name": "Black",
      "pbrMetallicRoughness": {
        "baseColorFactor": [
          0.0,
          0.0,
          0.0,
          1.0
        ],
        "roughnessFactor": 0.0
      }
    }
  ],
  "meshes": [
    {
      "name": "Object_0",
      "primitives": [
        {
          "attributes": {
            "NORMAL": 1,
            "POSITION": 0,
            "TEXCOORD_0": 2
          },
          "indices": 3,
          "material": 0,
          "mode": 4
        }
      ]
    },
    {
      "name": "Object_1",
      "primitives": [
        {
          "attributes": {
            "NORMAL": 5,
            "POSITION": 4,
            "TEXCOORD_0": 6
          },
          "indices": 7,
          "material": 1,
          "mode": 4
        }
      ]
    },
    {
      "name": "Object_2",
      "primitives": [
        {
          "attributes": {
            "NORMAL": 9,
            "POSITION": 8,
            "TEXCOORD_0": 10
          },
          "indices": 11,
          "material": 2,
          "mode": 4
        }
      ]
    },
    {
      "name": "Object_3",
      "primitives": [
        {
          "attributes": {
            "NORMAL": 13,
            "POSITION": 12,
            "TEXCOORD_0": 14
          },
          "indices": 15,
          "material": 3,
          "mode": 4
        }
      ]
    },
    {
      "name": "Object_4",
      "primitives": [
        {
          "attributes": {
            "NORMAL": 17,
            "POSITION": 16,
            "TEXCOORD_0": 18
          },
          "indices": 19,
          "material": 4,
          "mode": 4
        }
      ]
    },
    {
      "name": "Object_5",
      "primitives": [
        {
          "attributes": {
            "NORMAL": 21,
            "POSITION": 20,
            "TEXCOORD_0": 22
          },
          "indices": 23,
          "material": 5,
          "mode": 4
        }
      ]
    },
    {
      "name": "Object_6",
      "primitives": [
        {
          "attributes": {
            "NORMAL": 25,
            "POSITION": 24,
            "TEXCOORD_0": 26
          },
          "indices": 27,
          "material": 6,
          "mode": 4
        }
      ]
    },
    {
      "name": "Object_7",
      "primitives": [
        {
          "attributes": {
            "NORMAL": 29,
            "POSITION": 28,
            "TEXCOORD_0": 30
          },
          "indices": 31,
          "material": 7,
          "mode": 4
        }
      ]
    },
    {
      "name": "Object_8",
      "primitives": [
        {
          "attributes": {
            "NORMAL": 33,
            "POSITION": 32,
            "TEXCOORD_0": 34
          },
          "indices": 35,
          "material": 8,
          "mode": 4
        }
      ]
    },
    {
      "name": "Object_9",
      "primitives": [
        {
          "attributes": {
            "NORMAL": 37,
            "POSITION": 36,
            "TEXCOORD_0": 38
          },
          "indices": 39,
          "material": 9,
          "mode": 4
        }
      ]
    }
  ],
  "nodes": [
    {
      "children": [
        1
      ],
      "matrix": [
        1.0,
        0.0,
        0.0,
        0.0,
        0.0,
        2.220446049250313e-16,
        -1.0,
        0.0,
        0.0,
        1.0,
        2.220446049250313e-16,
        0.0,
        0.0,
        0.0,
        0.0,
        1.0
      ],
      "name": "Sketchfab_model"
    },
    {
      "children": [
        2
      ],
      "name": "root"
    },
    {
      "children": [
        3
      ],
      "matrix": [
        1.0,
        0.0,
        0.0,
        0.0,
        0.0,
        2.220446049250313e-16,
        1.0,
        0.0,
        0.0,
        -1.0,
        2.220446049250313e-16,
        0.0,
        0.0,
        0.0,
        0.0,
        1.0
      ],
      "name": "GLTF_SceneRootNode"
    },
    {
      "children": [
        4,
        5,
        6,
        7,
        8,
        9,
        10,
        11,
        12,
        13
      ],
      "matrix": [
        0.8805447220802307,
        0.0,
        0.0,
        0.0,
        0.0,
        1.314931035041809,
        0.0,
        0.0,
        0.0,
        0.0,
        0.8076644539833069,
        0.0,
        -0.007223069667816162,
        -1.9757494926452637,
        -5.348338163457811e-05,
        1.0
      ],
      "name": "Body_2"
    },
    {
      "mesh": 0,
      "name": "Object_4"
    },
    {
      "mesh": 1,
      "name": "Object_5"
    },
    {
      "mesh": 2,
      "name": "Object_6"
    },
    {
      "mesh": 3,
      "name": "Object_7"
    },
    {
      "mesh": 4,
      "name": "Object_8"
    },
    {
      "mesh": 5,
      "name": "Object_9"
    },
    {
      "mesh": 6,
      "name": "Object_10"
    },
    {
      "mesh": 7,
      "name": "Object_11"
    },
    {
      "mesh": 8,
      "name": "Object_12"
    },
    {
      "mesh": 9,
      "name": "Object_13"
    }
  ],
  "samplers": [
    {
      "magFilter": 9729,
      "minFilter": 9987,
      "wrapS": 10497,
      "wrapT": 10497
    }
  ],
  "scene": 0,
  "scenes": [
    {
      "name": "Sketchfab_Scene",
      "nodes": [
        0
      ]
    }
  ],
  "textures": [
    {
      "sampler": 0,
      "source": 0
    },
    {
      "sampler": 0,
      "source": 1
    },
    {
      "sampler": 0,
      "source": 2
    },
    {
      "sampler": 0,
      "source": 3
    },
    {
      "sampler": 0,
      "source": 4
    },
    {
      "sampler": 0,
      "source": 5
    },
    {
      "sampler": 0,
      "source": 6
    }
  ]
}
